<?xml version="1.0" encoding="UTF-8"?>
<svg id="Vrstva_2" data-name="Vrstva 2" xmlns="http://www.w3.org/2000/svg" viewBox="0 0 941.31 302.15">
  <defs>
    <style>
      .cls-1 {
        fill: #fff;
      }
    </style>
  </defs>
  <g id="Vrstva_1-2" data-name="Vrstva 1">
    <g>
      <g>
        <path class="cls-1" d="M21.78,80.51V20.1h53.77v60.41H21.78ZM65.17,70.13V30.48h-33.01v39.66h33.01Z"/>
        <polygon class="cls-1" points="21.78 229.31 21.78 161.58 106.35 161.58 106.35 171.96 32.16 171.96 32.16 218.93 88.27 218.93 88.27 229.31 21.78 229.31"/>
        <path class="cls-1" d="M21.78,156.26v-71.85h193.8v71.85H21.78ZM205.2,145.88v-51.09h-37.16v51.09h37.16ZM157.66,145.88v-51.09h-19.63v51.09h19.63ZM127.64,145.88v-51.09h-19.63v51.09h19.63ZM97.63,145.88v-51.09H32.16v51.09h65.47Z"/>
        <polygon class="cls-1" points="216.87 45.02 216.87 27.88 139.76 27.88 139.76 17.5 227.25 17.5 227.25 45.02 216.87 45.02"/>
        <path class="cls-1" d="M18.68,302.15c-10.3,0-18.68-8.39-18.68-18.69V18.68C0,8.38,8.38,0,18.68,0h112.11v50.03h114.51v160.59c0,5.79-2.62,11.15-7.19,14.72-3.32,2.59-7.3,3.97-11.49,3.97h-68.96v-10.38h47.54v-46.97h-65.03v-10.38h75.41v57.34h11.04c4.58,0,8.31-3.73,8.31-8.31V60.41h-27.36v20.1h-87.15V10.38H18.68c-4.58,0-8.31,3.73-8.31,8.31v264.77c0,4.59,3.73,8.32,8.31,8.32h90.47c4.58,0,8.31-3.73,8.31-8.32v-30.89c-6.55,9.17-17.55,19.21-35.69,24.13l-1.91.52-2.72-10.02,1.91-.52c30.81-8.35,37.21-33.15,38.24-38.52l.04-.22c.02-.11.04-.2.06-.29l.06-.4v-.87c-6.39,8.85-15.45,15.3-27.01,19.19l-1.79.6-3.84-9.89,1.95-.66c21.16-7.17,28.48-26.71,30.69-35.05v-4.47c-5.28,7.57-12.74,13.69-21.25,17.27l-1.48.62-6.59-9.52,2.24-.94c22.1-9.31,28.65-39.05,28.71-39.35.15-.66.31-1.23.49-1.76l3.48-10.52,3.4,10.22c.25.73.47,1.52.66,2.38.28,1.2,7.11,29.98,28.65,39.03l2.24.94-6.6,9.52-1.48-.62c-8.86-3.73-16.74-10.37-22.1-18.44v6.51c2.79,9.97,10.43,27.41,30.46,34.2l1.96.66-3.88,9.93-1.81-.66c-11.43-4.18-20.4-10.42-26.73-18.6v1.59c1.48,7.16,8.51,30.08,38.18,38.13l1.91.52-2.72,10.02-1.91-.52c-17.98-4.87-28.93-14.77-35.47-23.81v30.57c0,4.21-1.37,8.18-3.97,11.5-3.57,4.57-8.93,7.19-14.72,7.19H18.68ZM197.18,70.13v-9.72h-66.39v9.72h66.39Z"/>
      </g>
      <g>
        <g>
          <path class="cls-1" d="M315.66,158.45c-3.73-1.84-6.69-4.53-8.9-8.07-2.2-3.53-3.31-7.83-3.31-12.89,0-3.21.61-6.04,1.8-8.48,1.19-2.43,2.76-4.32,4.69-5.66,1.93-1.33,3.9-2,5.92-2,2.94,0,5.31.94,7.1,2.83s2.69,4.11,2.69,6.69c0,3.13-.83,5.63-2.48,7.51-1.66,1.89-3.64,3.24-5.94,4.07-1.56.55-2.68,1.26-3.38,2.14-.68.88-1.03,2.09-1.03,3.65,0,1.2.57,2.49,1.73,3.86,1.14,1.38,2.75,2.51,4.83,3.38,2.06.88,4.39,1.31,6.96,1.31,6.99,0,10.48-5.33,10.48-16v-72.53c0-1.28-.22-2.16-.68-2.62-.46-.46-1.34-.69-2.63-.69h-11.03v-4.41h46.6v4.41h-8.54c-1.2,0-2.05.23-2.56.69s-.75,1.34-.75,2.62v63.7c0,5.98-1.43,11.17-4.28,15.58-2.85,4.42-6.51,7.79-10.96,10.14-4.47,2.34-9.12,3.51-13.99,3.51-4.51,0-8.62-.92-12.34-2.75Z"/>
          <path class="cls-1" d="M381.49,154.31h9.65c1.29,0,2.15-.25,2.61-.76.46-.5.7-1.35.7-2.55v-82.73c0-1.28-.24-2.16-.7-2.62s-1.32-.69-2.61-.69h-9.65v-4.41h77.49l.82,31.99h-4.41c0-.65-.48-2.72-1.45-6.21-.97-3.5-2.32-6.67-4.06-9.52-2.12-3.67-4.56-6.57-7.32-8.69-2.75-2.12-5.83-3.18-9.23-3.18h-15.17c-1.19,0-2.04.23-2.55.69s-.75,1.34-.75,2.62v38.06h7.02c2.48,0,4.78-1.01,6.9-3.04,2.11-2.02,3.79-4.52,5.03-7.51,1.25-2.98,1.86-5.81,1.86-8.48h4.41v43.16h-4.41c0-2.76-.62-5.63-1.86-8.62-1.23-2.98-2.92-5.49-5.03-7.51-2.12-2.03-4.42-3.04-6.9-3.04h-7.02v39.71c0,1.2.25,2.05.75,2.55.5.51,1.36.76,2.55.76h15.04c5.05,0,9.28-2.03,12.68-6.07,3.4-4.05,5.98-8.54,7.72-13.51.74-2.12,1.38-4.74,1.94-7.86.55-3.13.86-5.19.97-6.21h4.41l-.83,38.06h-78.59v-4.41Z"/>
          <path class="cls-1" d="M476.64,154.31h9.65c1.29,0,2.15-.25,2.61-.76.46-.5.7-1.35.7-2.55v-82.73c0-1.28-.24-2.16-.7-2.62s-1.32-.69-2.61-.69h-9.65v-4.41h51.29c7.63,0,14.62,2.05,20.96,6.14,6.34,4.09,11.38,9.78,15.09,17.1,3.73,7.3,5.59,15.65,5.59,25.02s-1.86,17.88-5.59,25.51c-3.71,7.63-8.77,13.61-15.16,17.93-6.4,4.32-13.35,6.48-20.89,6.48h-51.29v-4.41ZM525.58,154.31c5.88,0,10.77-2.05,14.69-6.14,3.9-4.09,5.86-10.04,5.86-17.86v-41.36c0-7.82-1.95-13.77-5.86-17.86-3.92-4.09-8.81-6.14-14.69-6.14h-12.28c-1.19,0-2.04.23-2.55.69s-.75,1.34-.75,2.62v82.73c0,1.2.25,2.05.75,2.55.5.51,1.36.76,2.55.76h12.28Z"/>
          <path class="cls-1" d="M585.01,154.31h9.65c1.19,0,2.04-.3,2.55-.9s.76-1.54.76-2.83v-82.32c0-1.28-.24-2.16-.7-2.62s-1.32-.69-2.61-.69h-9.65v-4.41h46.33v4.41h-9.66c-1.19,0-2.04.23-2.55.69s-.75,1.34-.75,2.62v82.32c0,1.29.25,2.23.75,2.83s1.36.9,2.55.9h13.94c4.96,0,9.21-2.58,12.75-7.73,3.53-5.14,6.18-10.57,7.93-16.27.64-2.11,1.32-4.73,2.06-7.85.74-3.13,1.19-5.2,1.38-6.21h4.41l-1.1,42.47h-78.04v-4.41Z"/>
          <path class="cls-1" d="M699.25,153.9c-6.31-4.87-11.33-11.28-15.1-19.24-3.77-7.94-5.66-16.29-5.66-25.02s1.89-17.07,5.66-25.03c3.77-7.95,8.8-14.36,15.1-19.23,6.3-4.87,12.97-7.3,20.05-7.3s13.77,2.43,20.06,7.3c6.3,4.88,11.33,11.28,15.1,19.23,3.77,7.96,5.66,16.3,5.66,25.03s-1.89,17.08-5.66,25.02c-3.77,7.96-8.81,14.37-15.1,19.24s-12.98,7.3-20.06,7.3-13.76-2.43-20.05-7.3ZM732.2,150.65c2.98-4.09,4.49-10.87,4.49-20.34v-41.36c0-9.47-1.5-16.25-4.49-20.34-2.98-4.09-7.28-6.14-12.89-6.14s-9.9,2.05-12.89,6.14c-2.98,4.09-4.48,10.87-4.48,20.34v41.36c0,9.47,1.49,16.25,4.48,20.34,3,4.1,7.29,6.14,12.89,6.14s9.91-2.04,12.89-6.14Z"/>
          <path class="cls-1" d="M777.78,72.96c-1.02-3.04-2.32-5.12-3.94-6.27-1.6-1.15-3.93-1.73-6.96-1.73h-4.56v-4.41h47.85v4.41h-6.89c-1.29,0-2.39.35-3.31,1.04s-1.38,1.49-1.38,2.41c0,1.01.18,2.02.55,3.03l20.41,58.05,15.86-49.23c.92-2.75,1.38-5.1,1.38-7.03s-.65-3.9-1.93-5.66c-1.29-1.74-3.22-2.62-5.79-2.62h-6.9v-4.41h37.23v4.41h-4.28c-6.16,0-10.57,4.19-13.24,12.55l-27.15,83.69h-5.79l-31.16-88.24Z"/>
          <path class="cls-1" d="M846.45,154.31h4.68c2.76,0,5.2-1.08,7.32-3.24,2.11-2.16,3.73-4.8,4.83-7.93l29.1-85.07h5.79l29.5,89.21c1.57,4.69,4.28,7.04,8.14,7.04h5.52v4.41h-48.4v-4.41h9.92c1.11,0,2.01-.44,2.69-1.31.7-.87,1.03-1.91,1.03-3.1,0-1.01-.27-2.35-.82-4l-4.42-13.24h-28.95l-2.9,8.41c-1.01,2.58-1.51,4.92-1.51,7.04,0,1.66.66,3.1,2,4.34,1.32,1.24,3.05,1.86,5.17,1.86h6.47v4.41h-35.16v-4.41ZM874.17,127.56h25.51l-12.55-37.92-12.96,37.92ZM890.57,51.45l12.26-19.03c1.02-1.66,2.08-2.8,3.18-3.44,1.1-.64,2.3-.97,3.59-.97,1.65,0,3.03.5,4.13,1.51,1.11,1.02,1.66,2.35,1.66,4,0,2.48-1.29,4.69-3.86,6.62l-18.2,13.79-2.76-2.48Z"/>
        </g>
        <g>
          <path class="cls-1" d="M303.42,239.8h4.12c1.03,0,1.54-.52,1.54-1.55v-34c0-.53-.12-.92-.37-1.17-.25-.25-.64-.37-1.17-.37h-4.12v-1.83h18.66c2.25,0,4.36.42,6.33,1.26,1.96.84,3.54,1.99,4.72,3.46,1.18,1.47,1.77,3.14,1.77,5.01,0,2.59-.88,4.73-2.63,6.41-1.76,1.68-3.8,2.77-6.13,3.26v.23c1.57.12,3.12.6,4.67,1.46,1.54.86,2.82,2.03,3.83,3.52s1.52,3.17,1.52,5.04c0,2.33-.61,4.33-1.84,6.01-1.22,1.68-2.85,2.95-4.89,3.81-2.04.86-4.29,1.29-6.73,1.29h-19.29v-1.83ZM321.85,219.42c3.09,0,5.2-.79,6.32-2.38,1.13-1.58,1.69-3.73,1.69-6.44,0-2.29-.73-4.18-2.18-5.67-1.45-1.49-3.24-2.23-5.38-2.23h-6.41c-.54,0-.93.13-1.17.37-.25.25-.37.64-.37,1.17v15.17h7.5ZM322.08,239.8c2.32,0,4.24-.7,5.75-2.09,1.5-1.39,2.26-3.79,2.26-7.19s-.75-5.79-2.26-7.18c-1.51-1.39-3.43-2.09-5.75-2.09h-7.73v17c0,1.03.51,1.55,1.55,1.55h6.18Z"/>
          <path class="cls-1" d="M349.9,239.8h5.49c1.03,0,1.55-.52,1.55-1.55v-14.82l-11.1-18.2c-.57-.99-1.09-1.66-1.55-2-.46-.34-1.07-.52-1.83-.52h-2.98v-1.83h17.74v1.83h-3.43c-.57,0-1.05.14-1.43.4-.38.27-.57.61-.57,1.03,0,.57.09.99.28,1.26l9.05,15.28,5.84-11.22c.19-.27.4-.8.63-1.6.23-.8.34-1.43.34-1.89,0-.92-.26-1.69-.77-2.32-.51-.63-1.3-.95-2.38-.95h-1.71v-1.83h14.19v1.83h-1.66c-1.22,0-2.21.37-2.98,1.12-.76.74-1.51,1.77-2.23,3.06l-8.19,15.57v15.8c0,1.03.52,1.55,1.55,1.55h5.5v1.83h-19.34v-1.83Z"/>
          <path class="cls-1" d="M390.08,239.8h5.5c1.03,0,1.54-.52,1.54-1.55v-34.17c0-.53-.11-.92-.34-1.17-.23-.25-.63-.37-1.2-.37h-2.06c-2.4,0-4.48,1.22-6.24,3.66-1.11,1.57-1.85,3.52-2.23,5.87-.38,2.35-.57,4.08-.57,5.18h-1.6l.46-16.37h32.85l.46,16.37h-1.6c0-1.11-.19-2.83-.57-5.18-.38-2.35-1.13-4.3-2.24-5.87-1.75-2.44-3.83-3.66-6.24-3.66h-2.06c-.57,0-.97.12-1.2.37-.23.25-.34.64-.34,1.17v34.17c0,1.03.52,1.55,1.55,1.55h5.49v1.83h-19.34v-1.83Z"/>
          <path class="cls-1" d="M431.63,239.63c-2.52-2.02-4.48-4.68-5.89-7.99-1.41-3.3-2.12-6.76-2.12-10.39s.71-7.09,2.12-10.39c1.41-3.3,3.38-5.96,5.89-7.98,2.52-2.02,5.38-3.03,8.59-3.03s6.06,1.01,8.58,3.03c2.52,2.02,4.48,4.68,5.9,7.98,1.41,3.3,2.11,6.77,2.11,10.39s-.7,7.09-2.11,10.39c-1.42,3.3-3.38,5.96-5.9,7.99-2.52,2.02-5.38,3.03-8.58,3.03s-6.07-1.01-8.59-3.03ZM448.28,235.7c1.64-3.41,2.46-8.23,2.46-14.45s-.82-11.08-2.46-14.48c-1.64-3.4-4.33-5.09-8.07-5.09s-6.43,1.7-8.07,5.09c-1.64,3.4-2.46,8.22-2.46,14.48s.82,11.04,2.46,14.45c1.64,3.42,4.33,5.12,8.07,5.12s6.43-1.71,8.07-5.12Z"/>
          <path class="cls-1" d="M464.6,205.23c-.34-.95-.78-1.61-1.32-1.98-.54-.36-1.22-.54-2.06-.54h-3.61v-1.83h18.32v1.83h-3.78c-.54,0-.99.14-1.37.43s-.57.62-.57,1c0,.42.07.84.23,1.26l9.79,27.53,7.56-23.24c.46-1.49.69-2.81.69-3.95,0-.8-.22-1.51-.66-2.12-.44-.61-1.2-.92-2.26-.92h-3.09v-1.83h15.45v1.83h-2.11c-1.34,0-2.37.39-3.09,1.17-.72.78-1.29,1.78-1.71,3l-11.62,35.77h-1.43l-13.34-37.43Z"/>
          <path class="cls-1" d="M512.11,239.8h5.49c1.03,0,1.55-.52,1.55-1.55v-14.82l-11.1-18.2c-.57-.99-1.09-1.66-1.55-2-.46-.34-1.07-.52-1.83-.52h-2.98v-1.83h17.74v1.83h-3.43c-.57,0-1.05.14-1.43.4-.38.27-.57.61-.57,1.03,0,.57.09.99.28,1.26l9.05,15.28,5.84-11.22c.19-.27.4-.8.63-1.6.23-.8.34-1.43.34-1.89,0-.92-.26-1.69-.77-2.32-.51-.63-1.3-.95-2.38-.95h-1.71v-1.83h14.19v1.83h-1.66c-1.22,0-2.21.37-2.98,1.12-.76.74-1.51,1.77-2.23,3.06l-8.19,15.57v15.8c0,1.03.52,1.55,1.55,1.55h5.5v1.83h-19.34v-1.83ZM520.29,197.38l5.26-7.61c.5-.69.95-1.16,1.37-1.43s.89-.4,1.43-.4c.5,0,.89.16,1.17.49.29.32.43.75.43,1.29,0,.88-.53,1.72-1.6,2.52l-7.33,5.78-.74-.63Z"/>
          <path class="cls-1" d="M560.53,239.8h4.12c1.03,0,1.54-.52,1.54-1.55v-34c0-.53-.12-.92-.37-1.17-.25-.25-.64-.37-1.17-.37h-4.12v-1.83h20.95c3.17,0,6.07.85,8.7,2.55,2.63,1.7,4.72,4.06,6.27,7.1,1.54,3.03,2.32,6.5,2.32,10.39s-.77,7.42-2.32,10.59c-1.55,3.17-3.65,5.65-6.3,7.44-2.66,1.79-5.54,2.69-8.67,2.69h-20.95v-1.83ZM581.25,239.8c2.67,0,4.87-.91,6.58-2.72,1.72-1.81,2.96-4.14,3.72-6.98.76-2.84,1.15-5.9,1.15-9.19,0-5.11-.93-9.42-2.78-12.94-1.85-3.51-4.74-5.27-8.67-5.27h-8.24c-.54,0-.93.13-1.17.37-.25.25-.37.64-.37,1.17v34c0,1.03.51,1.55,1.55,1.55h8.24Z"/>
          <path class="cls-1" d="M614.27,240.63c-2.25-1.35-3.9-3.13-4.95-5.32-1.05-2.19-1.57-4.61-1.57-7.24v-23.81c0-.53-.12-.92-.37-1.17-.25-.25-.64-.37-1.17-.37h-4.12v-1.83h16.66v1.83h-4.18c-.54,0-.93.13-1.17.37-.25.25-.37.64-.37,1.17v25.36c0,3.55.86,6.31,2.58,8.27,1.72,1.97,4.12,2.95,7.21,2.95,2.4,0,4.47-.49,6.18-1.46,1.72-.97,3.01-2.26,3.89-3.86.88-1.6,1.32-3.34,1.32-5.21v-22.95c0-1.41-.34-2.54-1.03-3.38-.68-.84-1.57-1.26-2.63-1.26h-2v-1.83h13.62v1.83h-2.01c-1.07,0-1.94.42-2.63,1.26-.68.84-1.03,1.97-1.03,3.38v22.38c0,2.4-.54,4.59-1.63,6.55-1.09,1.97-2.67,3.52-4.75,4.67-2.08,1.15-4.51,1.72-7.3,1.72-3.43,0-6.27-.68-8.53-2.03ZM618.74,196.92c-1.11-1.11-1.66-2.42-1.66-3.95s.55-2.89,1.66-3.98c1.1-1.09,2.42-1.63,3.95-1.63s2.89.54,3.98,1.63c1.09,1.09,1.63,2.42,1.63,3.98s-.54,2.84-1.63,3.95c-1.09,1.11-2.42,1.66-3.98,1.66s-2.85-.55-3.95-1.66ZM625.69,195.98c.82-.82,1.23-1.82,1.23-3.01s-.41-2.18-1.23-3c-.82-.82-1.83-1.23-3-1.23s-2.18.41-3,1.23c-.82.82-1.23,1.82-1.23,3s.41,2.19,1.23,3.01c.82.82,1.82,1.23,3,1.23s2.18-.41,3-1.23Z"/>
          <path class="cls-1" d="M655.6,206.03h-.34v29.19c0,1.41.34,2.53,1,3.35.67.82,1.54,1.23,2.6,1.23h2.06v1.83h-13.62v-1.83h2.06c1.07,0,1.94-.41,2.6-1.23.67-.82,1-1.94,1-3.35v-30.96c0-.53-.12-.92-.37-1.17-.25-.25-.64-.37-1.17-.37h-4.12v-1.83h12.13l9.33,31.54,8.7-31.54h11.85v1.83h-4.12c-.54,0-.93.13-1.17.37-.25.25-.37.64-.37,1.17v34c0,1.03.51,1.55,1.55,1.55h4.12v1.83h-16.6v-1.83h4.12c1.03,0,1.55-.52,1.55-1.55v-33.77l-10.47,37.84h-1.37l-10.93-36.29Z"/>
          <path class="cls-1" d="M711.18,228.81v-3.2h14.31v3.2h-14.31Z"/>
          <path class="cls-1" d="M748.5,239.8h4.12c1.03,0,1.54-.52,1.54-1.55v-34c0-.53-.12-.92-.37-1.17-.25-.25-.64-.37-1.17-.37h-4.12v-1.83h19.12c2.67,0,5.04.45,7.13,1.34,2.08.9,3.7,2.16,4.86,3.78,1.16,1.62,1.75,3.46,1.75,5.52s-.58,3.97-1.75,5.61c-1.16,1.64-2.79,2.93-4.86,3.86-2.08.94-4.46,1.4-7.13,1.4h-8.18v15.86c0,.54.11.92.34,1.17.23.25.63.37,1.2.37h5.04v1.83h-17.51v-1.83ZM768.36,220.56c2.06,0,3.73-.89,5.01-2.66,1.28-1.77,1.92-3.9,1.92-6.38s-.63-4.57-1.89-6.27c-1.26-1.7-2.94-2.55-5.04-2.55h-7.38c-.54,0-.93.13-1.17.37-.25.25-.37.64-.37,1.17v16.31h8.93Z"/>
          <path class="cls-1" d="M787.42,239.8h4.12c1.03,0,1.54-.52,1.54-1.55v-34c0-.53-.12-.92-.37-1.17-.25-.25-.64-.37-1.17-.37h-4.12v-1.83h17.51v1.83h-5.04c-.54,0-.93.13-1.17.37-.25.25-.37.64-.37,1.17v34c0,1.03.51,1.55,1.55,1.55h5.78c2.02,0,3.83-.46,5.44-1.37,1.6-.92,2.8-2.25,3.61-4.01.61-1.29,1.12-2.68,1.52-4.15s.69-2.72.89-3.75c.19-1.03.31-1.68.34-1.95h1.43l-.51,17.06h-30.97v-1.83Z"/>
          <path class="cls-1" d="M826.12,239.8l23.7-37.09h-10.76c-1.26,0-2.44.34-3.52,1.03-1.09.69-1.99,1.45-2.72,2.29-.91,1.07-1.68,2.3-2.29,3.69-.61,1.39-1.07,2.67-1.37,3.83-.31,1.16-.46,1.82-.46,1.98h-1.43l1.37-14.65h27.25v1.83l-23.47,37.09h11.45c1.29,0,2.63-.39,4.01-1.17,1.37-.78,2.5-1.78,3.38-3,.95-1.37,1.75-2.89,2.38-4.55.63-1.66,1.09-3.16,1.4-4.49.3-1.34.46-2.08.46-2.23h1.43l-.92,17.29h-29.88v-1.83Z"/>
          <path class="cls-1" d="M863.09,239.8h4.12c1.03,0,1.54-.52,1.54-1.55v-34c0-.53-.12-.92-.37-1.17-.25-.25-.64-.37-1.17-.37h-4.12v-1.83h31.94l.23,14.31h-1.43c0-.76-.16-2.06-.49-3.89-.33-1.83-.96-3.47-1.92-4.92-1.6-2.44-3.85-3.66-6.75-3.66h-9.1c-.54,0-.93.13-1.17.37-.25.25-.37.64-.37,1.17v15.4h4.41c1.95,0,3.35-.99,4.21-2.98.86-1.98,1.29-4.1,1.29-6.35h1.49v20.49h-1.49c0-2.25-.43-4.37-1.29-6.35-.86-1.98-2.26-2.98-4.21-2.98h-4.41v16.77c0,1.03.51,1.55,1.55,1.55h9.16c1.1,0,2.23-.25,3.38-.75,1.14-.5,2.11-1.26,2.92-2.29.76-1.07,1.39-2.4,1.89-4.01.49-1.6.84-3.06,1.03-4.38.19-1.32.31-2.17.34-2.55h1.43l-.68,15.8h-31.94v-1.83Z"/>
          <path class="cls-1" d="M910.77,207.11h-.23v28.1c0,1.41.34,2.53,1,3.35.67.82,1.54,1.23,2.6,1.23h2.06v1.83h-13.62v-1.83h2.06c1.11,0,1.98-.41,2.63-1.23.65-.82.97-1.94.97-3.35v-30.96c-.04-.53-.17-.92-.4-1.17-.23-.25-.61-.37-1.14-.37h-4.12v-1.83h10.82l19.86,31.94v-25.53c0-1.41-.32-2.53-.97-3.35-.65-.82-1.5-1.23-2.58-1.23h-2.06v-1.83h13.62v1.83h-2.06c-1.07,0-1.95.41-2.63,1.23-.69.82-1.03,1.94-1.03,3.35v35.37h-2.29l-22.49-35.54ZM921.7,198.01l-8.01-8.24.68-.8,8.47,5.49,8.47-5.49.69.8-8.01,8.24h-2.29Z"/>
        </g>
      </g>
    </g>
  </g>
</svg>